# xmcd
#
# Track frame offsets:
#	150
#	13987
#	27617
#	39612
#	51367
#	63837
#	77617
#	91432
#	103710
#	116040
#	127862
#	142090
#	154872
#	167592
#
# Disc length: 2417 seconds
#
# Revision: 1
# Processed by: cddbd v1.5.2PL0 Copyright (c) Steve Scherf et al.
# Submitted via: EZCDAudioConverter 2.1.7.1
#
DISCID=be096f0e
DTITLE=Erroll Garner - Penthous Serenade
DYEAR=1945
DGENRE=Jazz
TTITLE0=I Cover The Waterfront
TTITLE1=Love Walked In
TTITLE2=I Don't Stand A Ghost Of A Chance
TTITLE3=Indiana
TTITLE4=Somebody Loves Me
TTITLE5=Body And Soul
TTITLE6=Penthouse Serenade
TTITLE7=Undecided
TTITLE8=Red Sails In The Sunset
TTITLE9=I Can't Believe That You're In Love With Me
TTITLE10=Stompin' At The Savoy
TTITLE11=Stardust
TTITLE12=More Than You Know
TTITLE13=Over The Rainbow
EXTD=
EXTT0=
EXTT1=
EXTT2=
EXTT3=
EXTT4=
EXTT5=
EXTT6=
EXTT7=
EXTT8=
EXTT9=
EXTT10=
EXTT11=
EXTT12=
EXTT13=
PLAYORDER=
